<mxfile host="Electron" agent="Mozilla/5.0 (Windows NT 10.0; Win64; x64) AppleWebKit/537.36 (KHTML, like Gecko) draw.io/24.7.5 Chrome/126.0.6478.183 Electron/31.3.0 Safari/537.36" version="24.7.5">
  <diagram name="Page-1" id="p_CfCp_O5o6aLxlQVrSI">
    <mxGraphModel dx="1500" dy="887" grid="1" gridSize="10" guides="1" tooltips="1" connect="1" arrows="1" fold="1" page="1" pageScale="1" pageWidth="1169" pageHeight="827" math="0" shadow="0">
      <root>
        <mxCell id="0" />
        <mxCell id="1" parent="0" />
        <mxCell id="5hz5f8qi8orM_lIJ9nXM-1" value="" style="rounded=0;whiteSpace=wrap;html=1;strokeColor=#3399FF;fontStyle=1;strokeWidth=2;" parent="1" vertex="1">
          <mxGeometry x="280" y="80" width="600" height="500" as="geometry" />
        </mxCell>
        <mxCell id="5hz5f8qi8orM_lIJ9nXM-2" value="&lt;font style=&quot;font-size: 14px;&quot;&gt;Slave&lt;/font&gt;&lt;div style=&quot;font-size: 14px;&quot;&gt;&lt;font style=&quot;font-size: 14px;&quot;&gt;AXI-Lite&lt;/font&gt;&lt;/div&gt;" style="rounded=0;whiteSpace=wrap;html=1;fontStyle=1;strokeWidth=2;" parent="1" vertex="1">
          <mxGeometry x="320" y="120" width="80" height="120" as="geometry" />
        </mxCell>
        <mxCell id="3Q9iYaLFPCVp7etbo2Zl-15" style="edgeStyle=orthogonalEdgeStyle;rounded=0;orthogonalLoop=1;jettySize=auto;html=1;entryX=0;entryY=0.5;entryDx=0;entryDy=0;strokeWidth=2;" parent="1" source="5hz5f8qi8orM_lIJ9nXM-4" target="3Q9iYaLFPCVp7etbo2Zl-6" edge="1">
          <mxGeometry relative="1" as="geometry" />
        </mxCell>
        <mxCell id="5hz5f8qi8orM_lIJ9nXM-4" value="&lt;font style=&quot;font-size: 14px;&quot;&gt;Data&lt;/font&gt;&lt;div style=&quot;font-size: 14px;&quot;&gt;&lt;font style=&quot;font-size: 14px;&quot;&gt;FIFO&lt;/font&gt;&lt;/div&gt;" style="rounded=0;whiteSpace=wrap;html=1;fontStyle=1;strokeWidth=2;" parent="1" vertex="1">
          <mxGeometry x="455" y="270" width="60" height="120" as="geometry" />
        </mxCell>
        <mxCell id="3Q9iYaLFPCVp7etbo2Zl-17" style="edgeStyle=orthogonalEdgeStyle;rounded=0;orthogonalLoop=1;jettySize=auto;html=1;entryX=1;entryY=0.5;entryDx=0;entryDy=0;strokeWidth=2;" parent="1" source="5hz5f8qi8orM_lIJ9nXM-5" target="3Q9iYaLFPCVp7etbo2Zl-4" edge="1">
          <mxGeometry relative="1" as="geometry" />
        </mxCell>
        <mxCell id="5hz5f8qi8orM_lIJ9nXM-5" value="&lt;span style=&quot;font-size: 14px;&quot;&gt;Data&lt;/span&gt;&lt;br&gt;&lt;div style=&quot;font-size: 14px;&quot;&gt;&lt;font style=&quot;font-size: 14px;&quot;&gt;FIFO&lt;/font&gt;&lt;/div&gt;" style="rounded=0;whiteSpace=wrap;html=1;fontStyle=1;strokeWidth=2;" parent="1" vertex="1">
          <mxGeometry x="455" y="420" width="60" height="120" as="geometry" />
        </mxCell>
        <mxCell id="5hz5f8qi8orM_lIJ9nXM-14" value="" style="endArrow=classicThin;html=1;rounded=0;entryX=0;entryY=0.5;entryDx=0;entryDy=0;exitX=1;exitY=0.5;exitDx=0;exitDy=0;endFill=1;fontStyle=1;strokeWidth=2;" parent="1" source="5hz5f8qi8orM_lIJ9nXM-2" target="3Q9iYaLFPCVp7etbo2Zl-1" edge="1">
          <mxGeometry width="50" height="50" relative="1" as="geometry">
            <mxPoint x="460" y="250" as="sourcePoint" />
            <mxPoint x="460" y="200" as="targetPoint" />
          </mxGeometry>
        </mxCell>
        <mxCell id="5hz5f8qi8orM_lIJ9nXM-32" value="" style="endArrow=classicThin;html=1;rounded=0;entryX=0;entryY=0.5;entryDx=0;entryDy=0;exitX=1;exitY=0.5;exitDx=0;exitDy=0;endFill=1;fontStyle=1;strokeWidth=2;" parent="1" source="3Q9iYaLFPCVp7etbo2Zl-1" target="3Q9iYaLFPCVp7etbo2Zl-5" edge="1">
          <mxGeometry width="50" height="50" relative="1" as="geometry">
            <mxPoint x="520" y="200" as="sourcePoint" />
            <mxPoint x="559.4000000000001" y="183.89999999999998" as="targetPoint" />
          </mxGeometry>
        </mxCell>
        <mxCell id="5hz5f8qi8orM_lIJ9nXM-47" value="" style="endArrow=none;dashed=1;html=1;rounded=0;entryX=0.25;entryY=0;entryDx=0;entryDy=0;exitX=0.25;exitY=1;exitDx=0;exitDy=0;strokeWidth=2;" parent="1" source="5hz5f8qi8orM_lIJ9nXM-1" target="5hz5f8qi8orM_lIJ9nXM-1" edge="1">
          <mxGeometry width="50" height="50" relative="1" as="geometry">
            <mxPoint x="360" y="420" as="sourcePoint" />
            <mxPoint x="410" y="370" as="targetPoint" />
          </mxGeometry>
        </mxCell>
        <mxCell id="5hz5f8qi8orM_lIJ9nXM-48" value="" style="endArrow=none;dashed=1;html=1;rounded=0;entryX=0.25;entryY=0;entryDx=0;entryDy=0;strokeWidth=2;" parent="1" edge="1">
          <mxGeometry width="50" height="50" relative="1" as="geometry">
            <mxPoint x="540" y="580" as="sourcePoint" />
            <mxPoint x="540" y="80" as="targetPoint" />
          </mxGeometry>
        </mxCell>
        <mxCell id="5hz5f8qi8orM_lIJ9nXM-49" value="&lt;b&gt;&lt;font style=&quot;font-size: 15px;&quot;&gt;AXI Clock Domain&lt;/font&gt;&lt;/b&gt;" style="text;html=1;align=center;verticalAlign=middle;whiteSpace=wrap;rounded=0;strokeWidth=2;" parent="1" vertex="1">
          <mxGeometry x="280" y="80" width="150" height="30" as="geometry" />
        </mxCell>
        <mxCell id="5hz5f8qi8orM_lIJ9nXM-50" value="&lt;b&gt;&lt;font style=&quot;font-size: 15px;&quot;&gt;H.264 Clock Domain&lt;/font&gt;&lt;/b&gt;" style="text;html=1;align=center;verticalAlign=middle;whiteSpace=wrap;rounded=0;strokeWidth=2;" parent="1" vertex="1">
          <mxGeometry x="540" y="80" width="160" height="30" as="geometry" />
        </mxCell>
        <mxCell id="3Q9iYaLFPCVp7etbo2Zl-1" value="&lt;div style=&quot;font-size: 14px;&quot;&gt;&lt;font style=&quot;font-size: 14px;&quot; face=&quot;Google Sans, Arial, sans-serif&quot; color=&quot;#001d35&quot;&gt;&lt;span style=&quot;background-color: rgb(255, 255, 255);&quot;&gt;Config&lt;/span&gt;&lt;/font&gt;&lt;/div&gt;&lt;div style=&quot;font-size: 14px;&quot;&gt;&lt;font style=&quot;font-size: 14px;&quot; face=&quot;Google Sans, Arial, sans-serif&quot; color=&quot;#001d35&quot;&gt;&lt;span style=&quot;background-color: rgb(255, 255, 255);&quot;&gt;Synchronizer&lt;/span&gt;&lt;/font&gt;&lt;/div&gt;" style="rounded=0;whiteSpace=wrap;html=1;fontStyle=1;strokeWidth=2;align=center;" parent="1" vertex="1">
          <mxGeometry x="440" y="120" width="90" height="120" as="geometry" />
        </mxCell>
        <mxCell id="3Q9iYaLFPCVp7etbo2Zl-14" style="edgeStyle=orthogonalEdgeStyle;rounded=0;orthogonalLoop=1;jettySize=auto;html=1;entryX=0;entryY=0.5;entryDx=0;entryDy=0;strokeWidth=2;" parent="1" source="3Q9iYaLFPCVp7etbo2Zl-3" target="5hz5f8qi8orM_lIJ9nXM-4" edge="1">
          <mxGeometry relative="1" as="geometry" />
        </mxCell>
        <mxCell id="3Q9iYaLFPCVp7etbo2Zl-3" value="&lt;font style=&quot;font-size: 14px;&quot;&gt;Slave&lt;/font&gt;&lt;div style=&quot;font-size: 14px;&quot;&gt;&lt;font style=&quot;font-size: 14px;&quot;&gt;AXI-Stream&lt;/font&gt;&lt;/div&gt;" style="rounded=0;whiteSpace=wrap;html=1;fontStyle=1;strokeWidth=2;" parent="1" vertex="1">
          <mxGeometry x="320" y="270" width="80" height="120" as="geometry" />
        </mxCell>
        <mxCell id="3Q9iYaLFPCVp7etbo2Zl-4" value="&lt;font style=&quot;font-size: 14px;&quot;&gt;Master&lt;br&gt;&lt;/font&gt;&lt;div style=&quot;font-size: 14px;&quot;&gt;&lt;font style=&quot;font-size: 14px;&quot;&gt;AXI-Stream&lt;/font&gt;&lt;/div&gt;" style="rounded=0;whiteSpace=wrap;html=1;fontStyle=1;strokeWidth=2;" parent="1" vertex="1">
          <mxGeometry x="320" y="420" width="80" height="120" as="geometry" />
        </mxCell>
        <mxCell id="3Q9iYaLFPCVp7etbo2Zl-5" value="&lt;span style=&quot;font-size: 16px;&quot;&gt;CONTROLLER&lt;/span&gt;" style="rounded=0;whiteSpace=wrap;html=1;fontStyle=1;strokeWidth=2;" parent="1" vertex="1">
          <mxGeometry x="560" y="120" width="120" height="120" as="geometry" />
        </mxCell>
        <mxCell id="3Q9iYaLFPCVp7etbo2Zl-19" style="edgeStyle=orthogonalEdgeStyle;rounded=0;orthogonalLoop=1;jettySize=auto;html=1;entryX=0;entryY=0.5;entryDx=0;entryDy=0;strokeWidth=2;" parent="1" source="3Q9iYaLFPCVp7etbo2Zl-6" target="3Q9iYaLFPCVp7etbo2Zl-34" edge="1">
          <mxGeometry relative="1" as="geometry">
            <mxPoint x="740" y="360" as="targetPoint" />
          </mxGeometry>
        </mxCell>
        <mxCell id="3Q9iYaLFPCVp7etbo2Zl-6" value="&lt;span style=&quot;font-size: 16px;&quot;&gt;LOAD_MB&lt;/span&gt;&lt;div&gt;&lt;span style=&quot;font-size: 16px;&quot;&gt;16x16&lt;/span&gt;&lt;/div&gt;" style="rounded=0;whiteSpace=wrap;html=1;fontStyle=1;strokeWidth=2;" parent="1" vertex="1">
          <mxGeometry x="560" y="270" width="120" height="120" as="geometry" />
        </mxCell>
        <mxCell id="3Q9iYaLFPCVp7etbo2Zl-16" style="edgeStyle=orthogonalEdgeStyle;rounded=0;orthogonalLoop=1;jettySize=auto;html=1;entryX=1;entryY=0.5;entryDx=0;entryDy=0;strokeWidth=2;" parent="1" source="3Q9iYaLFPCVp7etbo2Zl-7" target="5hz5f8qi8orM_lIJ9nXM-5" edge="1">
          <mxGeometry relative="1" as="geometry" />
        </mxCell>
        <mxCell id="3Q9iYaLFPCVp7etbo2Zl-7" value="&lt;span style=&quot;font-size: 16px;&quot;&gt;Bitstream&lt;/span&gt;&lt;div&gt;&lt;span style=&quot;font-size: 16px;&quot;&gt;Out&lt;/span&gt;&lt;/div&gt;" style="rounded=0;whiteSpace=wrap;html=1;fontStyle=1;strokeWidth=2;" parent="1" vertex="1">
          <mxGeometry x="560" y="420" width="120" height="120" as="geometry" />
        </mxCell>
        <mxCell id="3Q9iYaLFPCVp7etbo2Zl-8" value="B" style="endArrow=classic;html=1;rounded=0;entryX=0;entryY=0.5;entryDx=0;entryDy=0;exitX=0;exitY=0.5;exitDx=0;exitDy=0;fontStyle=1;strokeWidth=3;" parent="1" source="5hz5f8qi8orM_lIJ9nXM-2" edge="1">
          <mxGeometry x="1" y="20" width="50" height="50" relative="1" as="geometry">
            <mxPoint x="430" y="110" as="sourcePoint" />
            <mxPoint x="200" y="180" as="targetPoint" />
            <mxPoint x="-20" y="-20" as="offset" />
          </mxGeometry>
        </mxCell>
        <mxCell id="3Q9iYaLFPCVp7etbo2Zl-9" value="AR" style="endArrow=classic;html=1;rounded=0;entryX=0;entryY=0.5;entryDx=0;entryDy=0;fontStyle=1;strokeWidth=3;" parent="1" edge="1">
          <mxGeometry x="-1" y="-20" width="50" height="50" relative="1" as="geometry">
            <mxPoint x="200" y="200" as="sourcePoint" />
            <mxPoint x="320" y="200" as="targetPoint" />
            <mxPoint x="-20" y="-20" as="offset" />
          </mxGeometry>
        </mxCell>
        <mxCell id="3Q9iYaLFPCVp7etbo2Zl-10" value="R" style="endArrow=classic;html=1;rounded=0;entryX=0;entryY=0.5;entryDx=0;entryDy=0;fontStyle=1;strokeWidth=3;" parent="1" edge="1">
          <mxGeometry x="1" y="20" width="50" height="50" relative="1" as="geometry">
            <mxPoint x="320" y="220" as="sourcePoint" />
            <mxPoint x="200" y="220" as="targetPoint" />
            <mxPoint x="-20" y="-20" as="offset" />
          </mxGeometry>
        </mxCell>
        <mxCell id="3Q9iYaLFPCVp7etbo2Zl-11" value="W" style="endArrow=classic;html=1;rounded=0;entryX=0;entryY=0.5;entryDx=0;entryDy=0;fontStyle=1;strokeWidth=3;" parent="1" edge="1">
          <mxGeometry x="-1" y="-20" width="50" height="50" relative="1" as="geometry">
            <mxPoint x="200" y="160" as="sourcePoint" />
            <mxPoint x="320" y="160" as="targetPoint" />
            <mxPoint x="-20" y="-20" as="offset" />
          </mxGeometry>
        </mxCell>
        <mxCell id="3Q9iYaLFPCVp7etbo2Zl-12" value="AW" style="endArrow=classic;html=1;rounded=0;entryX=0;entryY=0.5;entryDx=0;entryDy=0;fontStyle=1;strokeWidth=3;" parent="1" edge="1">
          <mxGeometry x="-1" y="-20" width="50" height="50" relative="1" as="geometry">
            <mxPoint x="200" y="140" as="sourcePoint" />
            <mxPoint x="320" y="140" as="targetPoint" />
            <mxPoint x="-20" y="-20" as="offset" />
          </mxGeometry>
        </mxCell>
        <mxCell id="3Q9iYaLFPCVp7etbo2Zl-13" value="mm2s_tvalid" style="endArrow=classic;html=1;rounded=0;entryX=0;entryY=0.5;entryDx=0;entryDy=0;strokeWidth=2;fontStyle=1" parent="1" edge="1">
          <mxGeometry x="-1" y="-40" width="50" height="50" relative="1" as="geometry">
            <mxPoint x="200" y="290" as="sourcePoint" />
            <mxPoint x="320" y="290" as="targetPoint" />
            <mxPoint x="-40" y="-40" as="offset" />
          </mxGeometry>
        </mxCell>
        <mxCell id="3Q9iYaLFPCVp7etbo2Zl-21" style="edgeStyle=orthogonalEdgeStyle;rounded=0;orthogonalLoop=1;jettySize=auto;html=1;entryX=0;entryY=0.5;entryDx=0;entryDy=0;strokeWidth=2;" parent="1" edge="1">
          <mxGeometry relative="1" as="geometry">
            <mxPoint x="740" y="479.76" as="sourcePoint" />
            <mxPoint x="680" y="479.76" as="targetPoint" />
          </mxGeometry>
        </mxCell>
        <mxCell id="3Q9iYaLFPCVp7etbo2Zl-24" value="mm2s_tready" style="endArrow=classic;html=1;rounded=0;entryX=0;entryY=0.5;entryDx=0;entryDy=0;strokeWidth=2;fontStyle=1" parent="1" edge="1">
          <mxGeometry x="1" y="40" width="50" height="50" relative="1" as="geometry">
            <mxPoint x="320" y="310" as="sourcePoint" />
            <mxPoint x="200" y="310" as="targetPoint" />
            <mxPoint x="-40" y="-40" as="offset" />
          </mxGeometry>
        </mxCell>
        <mxCell id="3Q9iYaLFPCVp7etbo2Zl-25" value="mm2s_tlast" style="endArrow=classic;html=1;rounded=0;entryX=0;entryY=0.5;entryDx=0;entryDy=0;strokeWidth=2;fontStyle=1" parent="1" edge="1">
          <mxGeometry x="-1" y="-40" width="50" height="50" relative="1" as="geometry">
            <mxPoint x="200" y="370" as="sourcePoint" />
            <mxPoint x="320" y="370" as="targetPoint" />
            <mxPoint x="-40" y="-40" as="offset" />
          </mxGeometry>
        </mxCell>
        <mxCell id="3Q9iYaLFPCVp7etbo2Zl-26" value="mm2s_tkeep" style="endArrow=classic;html=1;rounded=0;entryX=0;entryY=0.5;entryDx=0;entryDy=0;strokeWidth=2;fontStyle=1" parent="1" edge="1">
          <mxGeometry x="-1" y="-40" width="50" height="50" relative="1" as="geometry">
            <mxPoint x="200" y="350" as="sourcePoint" />
            <mxPoint x="320" y="350" as="targetPoint" />
            <mxPoint x="-40" y="-40" as="offset" />
          </mxGeometry>
        </mxCell>
        <mxCell id="3Q9iYaLFPCVp7etbo2Zl-27" value="mm2s_tdata" style="endArrow=classic;html=1;rounded=0;entryX=0;entryY=0.5;entryDx=0;entryDy=0;strokeWidth=2;fontStyle=1" parent="1" edge="1">
          <mxGeometry x="-1" y="-40" width="50" height="50" relative="1" as="geometry">
            <mxPoint x="200" y="329.76" as="sourcePoint" />
            <mxPoint x="320" y="329.76" as="targetPoint" />
            <mxPoint x="-40" y="-40" as="offset" />
          </mxGeometry>
        </mxCell>
        <mxCell id="3Q9iYaLFPCVp7etbo2Zl-28" value="mm2s_tvalid" style="endArrow=classic;html=1;rounded=0;entryX=0;entryY=0.5;entryDx=0;entryDy=0;strokeWidth=2;fontStyle=1" parent="1" edge="1">
          <mxGeometry x="1" y="40" width="50" height="50" relative="1" as="geometry">
            <mxPoint x="320" y="439.71000000000004" as="sourcePoint" />
            <mxPoint x="200" y="439.71000000000004" as="targetPoint" />
            <mxPoint x="-40" y="-40" as="offset" />
          </mxGeometry>
        </mxCell>
        <mxCell id="3Q9iYaLFPCVp7etbo2Zl-29" value="mm2s_tready" style="endArrow=classic;html=1;rounded=0;entryX=0;entryY=0.5;entryDx=0;entryDy=0;strokeWidth=2;fontStyle=1" parent="1" edge="1">
          <mxGeometry x="-1" y="-40" width="50" height="50" relative="1" as="geometry">
            <mxPoint x="200" y="459.71000000000004" as="sourcePoint" />
            <mxPoint x="320" y="459.71000000000004" as="targetPoint" />
            <mxPoint x="-40" y="-40" as="offset" />
          </mxGeometry>
        </mxCell>
        <mxCell id="3Q9iYaLFPCVp7etbo2Zl-30" value="mm2s_tlast" style="endArrow=classic;html=1;rounded=0;entryX=0;entryY=0.5;entryDx=0;entryDy=0;strokeWidth=2;fontStyle=1" parent="1" edge="1">
          <mxGeometry x="1" y="40" width="50" height="50" relative="1" as="geometry">
            <mxPoint x="320" y="519.71" as="sourcePoint" />
            <mxPoint x="200" y="519.71" as="targetPoint" />
            <mxPoint x="-40" y="-40" as="offset" />
          </mxGeometry>
        </mxCell>
        <mxCell id="3Q9iYaLFPCVp7etbo2Zl-31" value="mm2s_tkeep" style="endArrow=classic;html=1;rounded=0;entryX=0;entryY=0.5;entryDx=0;entryDy=0;strokeWidth=2;fontStyle=1" parent="1" edge="1">
          <mxGeometry x="1" y="40" width="50" height="50" relative="1" as="geometry">
            <mxPoint x="320" y="499.71000000000004" as="sourcePoint" />
            <mxPoint x="200" y="499.71000000000004" as="targetPoint" />
            <mxPoint x="-40" y="-40" as="offset" />
          </mxGeometry>
        </mxCell>
        <mxCell id="3Q9iYaLFPCVp7etbo2Zl-32" value="mm2s_tdata" style="endArrow=classic;html=1;rounded=0;entryX=0;entryY=0.5;entryDx=0;entryDy=0;strokeWidth=2;fontStyle=1" parent="1" edge="1">
          <mxGeometry x="1" y="40" width="50" height="50" relative="1" as="geometry">
            <mxPoint x="320" y="479.47" as="sourcePoint" />
            <mxPoint x="200" y="479.47" as="targetPoint" />
            <mxPoint x="-40" y="-40" as="offset" />
          </mxGeometry>
        </mxCell>
        <mxCell id="3Q9iYaLFPCVp7etbo2Zl-33" value="" style="endArrow=classic;startArrow=classic;html=1;rounded=0;exitX=1;exitY=0.5;exitDx=0;exitDy=0;entryX=0;entryY=0;entryDx=0;entryDy=0;strokeWidth=2;" parent="1" source="3Q9iYaLFPCVp7etbo2Zl-5" edge="1">
          <mxGeometry width="50" height="50" relative="1" as="geometry">
            <mxPoint x="550" y="240" as="sourcePoint" />
            <mxPoint x="740" y="180" as="targetPoint" />
          </mxGeometry>
        </mxCell>
        <mxCell id="3Q9iYaLFPCVp7etbo2Zl-34" value="&lt;font style=&quot;font-size: 21px;&quot;&gt;H.264 IE&lt;/font&gt;&lt;div style=&quot;font-size: 21px;&quot;&gt;&lt;font style=&quot;font-size: 21px;&quot;&gt;CORE&lt;/font&gt;&lt;/div&gt;" style="rounded=0;whiteSpace=wrap;html=1;fontStyle=1;strokeWidth=2;" parent="1" vertex="1">
          <mxGeometry x="740" y="120" width="120" height="420" as="geometry" />
        </mxCell>
      </root>
    </mxGraphModel>
  </diagram>
</mxfile>
